<?xml version="1.0" encoding="UTF-8"?>
<title id="astro-logo-title">Astro logo</title>
<svg xmlns="http://www.w3.org/2000/svg" xmlns:xlink="http://www.w3.org/1999/xlink" width="274px" height="150px" viewBox="0 0 274 150" version="1.1">
<defs>
<linearGradient id="linear0" gradientUnits="userSpaceOnUse" x1="61.000301" y1="136" x2="104.622002" y2="115.389999" gradientTransform="matrix(0.595652,0,0,0.9375,0,0)">
<stop offset="0" style="stop-color:rgb(84.705882%,20%,20%);stop-opacity:1;"/>
<stop offset="1" style="stop-color:rgb(94.117647%,25.490196%,100%);stop-opacity:1;"/>
</linearGradient>
</defs>
<g id="surface1">
<path style=" stroke:none;fill-rule:nonzero;fill:rgb(100%,100%,100%);fill-opacity:1;" d="M 39.183594 113.601562 C 36.492188 109.730469 35.707031 101.59375 36.828125 95.703125 C 38.773438 99.417969 41.46875 100.59375 44.257812 101.257812 C 48.5625 102.285156 52.792969 101.902344 56.792969 98.800781 C 57.253906 98.449219 57.675781 97.976562 58.175781 97.5 C 58.550781 99.210938 58.648438 100.941406 58.519531 102.703125 C 58.199219 106.992188 56.84375 110.308594 54.683594 112.820312 C 53.824219 113.824219 52.910156 114.722656 52.019531 115.671875 C 49.28125 118.582031 48.539062 121.996094 49.570312 126.960938 C 49.59375 127.082031 49.617188 127.203125 49.671875 127.5 C 48.273438 126.515625 47.253906 125.082031 46.472656 123.199219 C 45.652344 121.207031 45.261719 119.007812 45.242188 116.628906 C 45.230469 115.46875 45.230469 114.300781 45.132812 113.15625 C 44.890625 110.375 44.058594 109.125 42.496094 109.054688 C 40.890625 108.980469 39.621094 110.542969 39.28125 113.003906 C 39.257812 113.191406 39.21875 113.378906 39.183594 113.597656 Z M 39.183594 113.601562 "/>
<path style=" stroke:none;fill-rule:nonzero;fill:url(#linear0);" d="M 39.183594 113.601562 C 36.492188 109.730469 35.707031 101.59375 36.828125 95.703125 C 38.773438 99.417969 41.46875 100.59375 44.257812 101.257812 C 48.5625 102.285156 52.792969 101.902344 56.792969 98.800781 C 57.253906 98.449219 57.675781 97.976562 58.175781 97.5 C 58.550781 99.210938 58.648438 100.941406 58.519531 102.703125 C 58.199219 106.992188 56.84375 110.308594 54.683594 112.820312 C 53.824219 113.824219 52.910156 114.722656 52.019531 115.671875 C 49.28125 118.582031 48.539062 121.996094 49.570312 126.960938 C 49.59375 127.082031 49.617188 127.203125 49.671875 127.5 C 48.273438 126.515625 47.253906 125.082031 46.472656 123.199219 C 45.652344 121.207031 45.261719 119.007812 45.242188 116.628906 C 45.230469 115.46875 45.230469 114.300781 45.132812 113.15625 C 44.890625 110.375 44.058594 109.125 42.496094 109.054688 C 40.890625 108.980469 39.621094 110.542969 39.28125 113.003906 C 39.257812 113.191406 39.21875 113.378906 39.183594 113.597656 Z M 39.183594 113.601562 "/>
<path style=" stroke:none;fill-rule:nonzero;fill:rgb(100%,100%,100%);fill-opacity:1;" d="M 23.824219 94.71875 C 23.824219 94.71875 31.792969 88.609375 39.785156 88.609375 L 45.808594 59.265625 C 46.035156 57.84375 46.695312 56.878906 47.4375 56.878906 C 48.179688 56.878906 48.839844 57.84375 49.066406 59.265625 L 55.089844 88.609375 C 64.554688 88.609375 71.046875 94.71875 71.046875 94.71875 C 71.046875 94.71875 57.515625 36.6875 57.488281 36.570312 C 57.097656 34.855469 56.441406 33.75 55.558594 33.75 L 39.316406 33.75 C 38.433594 33.75 37.804688 34.855469 37.390625 36.570312 C 37.359375 36.683594 23.824219 94.71875 23.824219 94.71875 Z M 23.824219 94.71875 "/>
<path style=" stroke:none;fill-rule:nonzero;fill:rgb(100%,100%,100%);fill-opacity:1;" d="M 107.839844 76.050781 C 107.839844 81.195312 103.773438 84.265625 98.148438 84.265625 C 94.484375 84.265625 93.191406 82.835938 93.191406 79.835938 C 93.191406 76.695312 94.796875 75.195312 98.460938 75.195312 C 101.765625 75.195312 104.578125 75.265625 107.839844 75.910156 Z M 107.882812 69.695312 C 105.875 68.980469 102.835938 68.554688 99.21875 68.554688 C 88.679688 68.554688 83.722656 72.480469 83.722656 81.625 C 83.722656 91.121094 87.117188 94.765625 94.976562 94.765625 C 101.628906 94.765625 106.140625 92.121094 107.792969 85.625 L 108.0625 85.625 C 108.015625 87.195312 107.972656 88.765625 107.972656 89.980469 C 107.972656 93.335938 108.328125 93.621094 110.070312 93.621094 L 118.289062 93.621094 C 117.84375 91.621094 117.574219 85.980469 117.574219 81.125 C 117.574219 75.910156 117.707031 71.980469 117.707031 66.695312 C 117.707031 55.910156 113.601562 49.054688 100.738281 49.054688 C 95.199219 49.054688 89.035156 50.554688 84.347656 52.769531 C 84.792969 55.695312 85.417969 61.625 85.730469 65.480469 C 89.796875 62.480469 95.558594 61.195312 100.023438 61.195312 C 106.1875 61.195312 107.882812 63.410156 107.882812 67.910156 Z M 107.882812 69.695312 "/>
<path style=" stroke:none;fill-rule:nonzero;fill:rgb(100%,100%,100%);fill-opacity:1;" d="M 130.429688 79.050781 C 129.3125 79.265625 127.796875 79.265625 126.230469 79.265625 C 124.578125 79.265625 123.0625 79.195312 122.035156 78.980469 C 122.035156 79.550781 121.988281 80.195312 121.988281 80.765625 C 121.988281 89.695312 125.695312 94.90625 138.738281 94.90625 C 151.019531 94.90625 154.992188 89.765625 154.992188 80.695312 C 154.992188 72.125 152.359375 67.910156 140.703125 66.980469 C 131.636719 66.339844 130.832031 64.769531 130.832031 62.980469 C 130.832031 60.910156 131.992188 59.839844 138.066406 59.839844 C 144.363281 59.839844 146.0625 61.195312 146.0625 64.054688 L 146.0625 64.695312 C 146.957031 64.625 148.5625 64.554688 150.214844 64.554688 C 151.777344 64.554688 153.476562 64.625 154.457031 64.769531 C 154.457031 64.125 154.503906 63.554688 154.503906 63.054688 C 154.503906 52.554688 148.964844 49.125 138.246094 49.125 C 126.1875 49.125 122.125 53.769531 122.125 62.839844 C 122.125 70.980469 125.382812 76.050781 136.949219 76.839844 C 145.480469 77.265625 146.417969 78.765625 146.417969 80.835938 C 146.417969 83.050781 145.035156 84.050781 139.050781 84.050781 C 132.171875 84.050781 130.429688 82.550781 130.429688 79.480469 Z M 130.429688 79.050781 "/>
<path style=" stroke:none;fill-rule:nonzero;fill:rgb(100%,100%,100%);fill-opacity:1;" d="M 169.734375 41.414062 C 166.472656 46.199219 160.625 50.984375 157.363281 52.269531 C 157.410156 54.910156 157.410156 59.769531 157.410156 62.410156 L 160.398438 62.480469 C 160.355469 67.554688 160.3125 73.695312 160.3125 77.765625 C 160.3125 87.265625 163.480469 94.40625 173.351562 94.40625 C 177.503906 94.40625 180.273438 93.695312 183.710938 92.550781 C 183.355469 89.050781 182.953125 83.695312 182.820312 79.625 C 180.765625 80.695312 178.175781 81.265625 175.316406 81.265625 C 171.339844 81.265625 169.734375 79.550781 169.734375 74.625 C 169.734375 70.339844 169.734375 66.339844 169.777344 62.625 C 174.871094 62.695312 179.960938 62.839844 182.953125 62.980469 C 182.910156 59.269531 183 53.910156 183.132812 50.339844 C 178.800781 50.484375 173.933594 50.554688 169.914062 50.554688 C 169.957031 47.410156 170.003906 44.414062 170.046875 41.414062 Z M 169.734375 41.414062 "/>
<path style=" stroke:none;fill-rule:nonzero;fill:rgb(100%,100%,100%);fill-opacity:1;" d="M 196.40625 60.269531 C 196.453125 56.554688 196.496094 53.410156 196.542969 50.339844 L 187.566406 50.339844 C 187.699219 56.484375 187.699219 62.769531 187.699219 71.980469 C 187.699219 81.195312 187.652344 87.550781 187.566406 93.621094 L 197.835938 93.621094 C 197.660156 89.335938 197.613281 82.125 197.613281 75.980469 C 197.613281 66.269531 200.113281 63.480469 205.785156 63.480469 C 208.421875 63.480469 210.296875 63.980469 211.949219 64.910156 C 211.996094 61.269531 212.441406 54.195312 212.707031 51.054688 C 211.011719 50.269531 209.136719 49.769531 206.859375 49.769531 C 201.992188 49.699219 198.417969 52.839844 196.765625 60.339844 Z M 196.40625 60.269531 "/>
<path style=" stroke:none;fill-rule:nonzero;fill:rgb(100%,100%,100%);fill-opacity:1;" d="M 241.125 71.695312 C 241.125 79.480469 237.550781 83.125 231.925781 83.125 C 226.34375 83.125 222.769531 79.695312 222.769531 71.695312 C 222.769531 63.695312 226.386719 60.695312 231.925781 60.695312 C 237.507812 60.695312 241.125 63.910156 241.125 71.695312 Z M 250.457031 71.339844 C 250.457031 55.839844 242.777344 48.910156 231.925781 48.910156 C 221.027344 48.910156 213.613281 55.839844 213.613281 71.339844 C 213.613281 86.765625 220.535156 95.050781 231.878906 95.050781 C 243.3125 95.050781 250.457031 86.765625 250.457031 71.339844 Z M 250.457031 71.339844 "/>
</g>
</svg>
